<mxfile host="app.diagrams.net" agent="Mozilla/5.0 (Windows NT 10.0; Win64; x64) AppleWebKit/537.36 (KHTML, like Gecko) Chrome/129.0.0.0 Safari/537.36" version="24.7.17" pages="2">
  <diagram name="Page-1" id="mRt0QI5eCwjEh7JdFfQS">
    <mxGraphModel dx="1687" dy="889" grid="1" gridSize="10" guides="1" tooltips="1" connect="1" arrows="1" fold="1" page="1" pageScale="1" pageWidth="850" pageHeight="1100" math="0" shadow="0">
      <root>
        <mxCell id="0" />
        <mxCell id="1" parent="0" />
        <mxCell id="UZOQ-vaOavC9OgUh06o8-4" style="edgeStyle=orthogonalEdgeStyle;rounded=0;orthogonalLoop=1;jettySize=auto;html=1;exitX=0.5;exitY=1;exitDx=0;exitDy=0;entryX=0.5;entryY=0;entryDx=0;entryDy=0;" edge="1" parent="1" source="UZOQ-vaOavC9OgUh06o8-1" target="UZOQ-vaOavC9OgUh06o8-2">
          <mxGeometry relative="1" as="geometry" />
        </mxCell>
        <mxCell id="UZOQ-vaOavC9OgUh06o8-1" value="Strat" style="ellipse;whiteSpace=wrap;html=1;" vertex="1" parent="1">
          <mxGeometry x="160" y="40" width="120" height="80" as="geometry" />
        </mxCell>
        <mxCell id="UZOQ-vaOavC9OgUh06o8-5" style="edgeStyle=orthogonalEdgeStyle;rounded=0;orthogonalLoop=1;jettySize=auto;html=1;exitX=0.5;exitY=1;exitDx=0;exitDy=0;entryX=0.5;entryY=0;entryDx=0;entryDy=0;" edge="1" parent="1" source="UZOQ-vaOavC9OgUh06o8-2" target="UZOQ-vaOavC9OgUh06o8-3">
          <mxGeometry relative="1" as="geometry" />
        </mxCell>
        <mxCell id="UZOQ-vaOavC9OgUh06o8-2" value="mergeSort (array[n])" style="whiteSpace=wrap;html=1;" vertex="1" parent="1">
          <mxGeometry x="160" y="180" width="120" height="60" as="geometry" />
        </mxCell>
        <mxCell id="UZOQ-vaOavC9OgUh06o8-7" style="edgeStyle=orthogonalEdgeStyle;rounded=0;orthogonalLoop=1;jettySize=auto;html=1;exitX=1;exitY=0.5;exitDx=0;exitDy=0;entryX=0;entryY=0.5;entryDx=0;entryDy=0;" edge="1" parent="1" source="UZOQ-vaOavC9OgUh06o8-3" target="UZOQ-vaOavC9OgUh06o8-6">
          <mxGeometry relative="1" as="geometry" />
        </mxCell>
        <mxCell id="UZOQ-vaOavC9OgUh06o8-10" style="edgeStyle=orthogonalEdgeStyle;rounded=0;orthogonalLoop=1;jettySize=auto;html=1;exitX=0.5;exitY=1;exitDx=0;exitDy=0;entryX=0.5;entryY=0;entryDx=0;entryDy=0;" edge="1" parent="1" source="UZOQ-vaOavC9OgUh06o8-3" target="UZOQ-vaOavC9OgUh06o8-9">
          <mxGeometry relative="1" as="geometry" />
        </mxCell>
        <mxCell id="UZOQ-vaOavC9OgUh06o8-3" value="array.lenght &amp;lt;= 1" style="rhombus;whiteSpace=wrap;html=1;" vertex="1" parent="1">
          <mxGeometry x="165" y="290" width="110" height="110" as="geometry" />
        </mxCell>
        <mxCell id="UZOQ-vaOavC9OgUh06o8-6" value="return array[]" style="rounded=1;whiteSpace=wrap;html=1;" vertex="1" parent="1">
          <mxGeometry x="365" y="315" width="120" height="60" as="geometry" />
        </mxCell>
        <mxCell id="UZOQ-vaOavC9OgUh06o8-8" value="True" style="text;html=1;align=center;verticalAlign=middle;resizable=0;points=[];autosize=1;strokeColor=none;fillColor=none;" vertex="1" parent="1">
          <mxGeometry x="285" y="318" width="50" height="30" as="geometry" />
        </mxCell>
        <mxCell id="UZOQ-vaOavC9OgUh06o8-14" style="edgeStyle=orthogonalEdgeStyle;rounded=0;orthogonalLoop=1;jettySize=auto;html=1;exitX=0.5;exitY=1;exitDx=0;exitDy=0;entryX=0.5;entryY=0;entryDx=0;entryDy=0;" edge="1" parent="1" source="UZOQ-vaOavC9OgUh06o8-9" target="UZOQ-vaOavC9OgUh06o8-13">
          <mxGeometry relative="1" as="geometry" />
        </mxCell>
        <mxCell id="UZOQ-vaOavC9OgUh06o8-9" value="mid = array.lenght / 2" style="rounded=1;whiteSpace=wrap;html=1;" vertex="1" parent="1">
          <mxGeometry x="145" y="440" width="150" height="50" as="geometry" />
        </mxCell>
        <mxCell id="UZOQ-vaOavC9OgUh06o8-11" value="False" style="text;html=1;align=center;verticalAlign=middle;resizable=0;points=[];autosize=1;strokeColor=none;fillColor=none;" vertex="1" parent="1">
          <mxGeometry x="225" y="400" width="50" height="30" as="geometry" />
        </mxCell>
        <mxCell id="UZOQ-vaOavC9OgUh06o8-12" style="edgeStyle=orthogonalEdgeStyle;rounded=0;orthogonalLoop=1;jettySize=auto;html=1;exitX=0.5;exitY=1;exitDx=0;exitDy=0;" edge="1" parent="1" source="UZOQ-vaOavC9OgUh06o8-9" target="UZOQ-vaOavC9OgUh06o8-9">
          <mxGeometry relative="1" as="geometry" />
        </mxCell>
        <mxCell id="UZOQ-vaOavC9OgUh06o8-19" style="edgeStyle=orthogonalEdgeStyle;rounded=0;orthogonalLoop=1;jettySize=auto;html=1;exitX=0.5;exitY=1;exitDx=0;exitDy=0;entryX=0.5;entryY=0;entryDx=0;entryDy=0;" edge="1" parent="1" source="UZOQ-vaOavC9OgUh06o8-13" target="UZOQ-vaOavC9OgUh06o8-15">
          <mxGeometry relative="1" as="geometry" />
        </mxCell>
        <mxCell id="UZOQ-vaOavC9OgUh06o8-13" value="i=0" style="rounded=1;whiteSpace=wrap;html=1;" vertex="1" parent="1">
          <mxGeometry x="160" y="520" width="120" height="40" as="geometry" />
        </mxCell>
        <mxCell id="UZOQ-vaOavC9OgUh06o8-20" style="edgeStyle=orthogonalEdgeStyle;rounded=0;orthogonalLoop=1;jettySize=auto;html=1;exitX=0.5;exitY=1;exitDx=0;exitDy=0;entryX=0.5;entryY=0;entryDx=0;entryDy=0;" edge="1" parent="1" source="UZOQ-vaOavC9OgUh06o8-15" target="UZOQ-vaOavC9OgUh06o8-16">
          <mxGeometry relative="1" as="geometry" />
        </mxCell>
        <mxCell id="UZOQ-vaOavC9OgUh06o8-15" value="left [ i ]" style="rounded=1;whiteSpace=wrap;html=1;" vertex="1" parent="1">
          <mxGeometry x="160" y="600" width="120" height="40" as="geometry" />
        </mxCell>
        <mxCell id="UZOQ-vaOavC9OgUh06o8-21" style="edgeStyle=orthogonalEdgeStyle;rounded=0;orthogonalLoop=1;jettySize=auto;html=1;exitX=0.5;exitY=1;exitDx=0;exitDy=0;entryX=0.5;entryY=0;entryDx=0;entryDy=0;" edge="1" parent="1" source="UZOQ-vaOavC9OgUh06o8-16" target="UZOQ-vaOavC9OgUh06o8-17">
          <mxGeometry relative="1" as="geometry" />
        </mxCell>
        <mxCell id="UZOQ-vaOavC9OgUh06o8-16" value="i++" style="rounded=1;whiteSpace=wrap;html=1;" vertex="1" parent="1">
          <mxGeometry x="160" y="680" width="120" height="40" as="geometry" />
        </mxCell>
        <mxCell id="UZOQ-vaOavC9OgUh06o8-25" style="edgeStyle=orthogonalEdgeStyle;rounded=0;orthogonalLoop=1;jettySize=auto;html=1;exitX=0.5;exitY=1;exitDx=0;exitDy=0;entryX=0.5;entryY=0;entryDx=0;entryDy=0;" edge="1" parent="1" source="UZOQ-vaOavC9OgUh06o8-17" target="UZOQ-vaOavC9OgUh06o8-24">
          <mxGeometry relative="1" as="geometry" />
        </mxCell>
        <mxCell id="UZOQ-vaOavC9OgUh06o8-17" value="i &amp;lt; mid" style="rhombus;whiteSpace=wrap;html=1;" vertex="1" parent="1">
          <mxGeometry x="180" y="750" width="80" height="80" as="geometry" />
        </mxCell>
        <mxCell id="UZOQ-vaOavC9OgUh06o8-18" style="edgeStyle=orthogonalEdgeStyle;rounded=0;orthogonalLoop=1;jettySize=auto;html=1;exitX=1;exitY=0.5;exitDx=0;exitDy=0;entryX=1.013;entryY=0.386;entryDx=0;entryDy=0;entryPerimeter=0;" edge="1" parent="1" source="UZOQ-vaOavC9OgUh06o8-17" target="UZOQ-vaOavC9OgUh06o8-15">
          <mxGeometry relative="1" as="geometry">
            <Array as="points">
              <mxPoint x="340" y="790" />
              <mxPoint x="340" y="615" />
            </Array>
          </mxGeometry>
        </mxCell>
        <mxCell id="UZOQ-vaOavC9OgUh06o8-22" value="True" style="text;html=1;align=center;verticalAlign=middle;resizable=0;points=[];autosize=1;strokeColor=none;fillColor=none;" vertex="1" parent="1">
          <mxGeometry x="260" y="760" width="50" height="30" as="geometry" />
        </mxCell>
        <mxCell id="UZOQ-vaOavC9OgUh06o8-29" style="edgeStyle=orthogonalEdgeStyle;rounded=0;orthogonalLoop=1;jettySize=auto;html=1;exitX=0.5;exitY=1;exitDx=0;exitDy=0;entryX=0.5;entryY=0;entryDx=0;entryDy=0;" edge="1" parent="1" source="UZOQ-vaOavC9OgUh06o8-24" target="UZOQ-vaOavC9OgUh06o8-28">
          <mxGeometry relative="1" as="geometry" />
        </mxCell>
        <mxCell id="UZOQ-vaOavC9OgUh06o8-24" value="j=mid" style="rounded=1;whiteSpace=wrap;html=1;" vertex="1" parent="1">
          <mxGeometry x="160" y="870" width="120" height="40" as="geometry" />
        </mxCell>
        <mxCell id="UZOQ-vaOavC9OgUh06o8-26" value="False" style="text;html=1;align=center;verticalAlign=middle;resizable=0;points=[];autosize=1;strokeColor=none;fillColor=none;" vertex="1" parent="1">
          <mxGeometry x="165" y="828" width="50" height="30" as="geometry" />
        </mxCell>
        <mxCell id="UZOQ-vaOavC9OgUh06o8-99" style="edgeStyle=orthogonalEdgeStyle;rounded=0;orthogonalLoop=1;jettySize=auto;html=1;exitX=0.5;exitY=1;exitDx=0;exitDy=0;entryX=0.5;entryY=0;entryDx=0;entryDy=0;" edge="1" parent="1" source="UZOQ-vaOavC9OgUh06o8-28" target="UZOQ-vaOavC9OgUh06o8-97">
          <mxGeometry relative="1" as="geometry" />
        </mxCell>
        <mxCell id="UZOQ-vaOavC9OgUh06o8-28" value="right [ j ]" style="rounded=1;whiteSpace=wrap;html=1;" vertex="1" parent="1">
          <mxGeometry x="160" y="950" width="120" height="40" as="geometry" />
        </mxCell>
        <mxCell id="UZOQ-vaOavC9OgUh06o8-35" style="edgeStyle=orthogonalEdgeStyle;rounded=0;orthogonalLoop=1;jettySize=auto;html=1;exitX=0.5;exitY=1;exitDx=0;exitDy=0;entryX=0.5;entryY=0;entryDx=0;entryDy=0;" edge="1" parent="1" source="UZOQ-vaOavC9OgUh06o8-30" target="UZOQ-vaOavC9OgUh06o8-31">
          <mxGeometry relative="1" as="geometry" />
        </mxCell>
        <mxCell id="UZOQ-vaOavC9OgUh06o8-30" value="result [left.lenght + right.lenght]" style="rounded=1;whiteSpace=wrap;html=1;" vertex="1" parent="1">
          <mxGeometry x="125" y="1250" width="190" height="40" as="geometry" />
        </mxCell>
        <mxCell id="UZOQ-vaOavC9OgUh06o8-36" style="edgeStyle=orthogonalEdgeStyle;rounded=0;orthogonalLoop=1;jettySize=auto;html=1;exitX=0.5;exitY=1;exitDx=0;exitDy=0;" edge="1" parent="1" source="UZOQ-vaOavC9OgUh06o8-31">
          <mxGeometry relative="1" as="geometry">
            <mxPoint x="220" y="1480" as="targetPoint" />
          </mxGeometry>
        </mxCell>
        <mxCell id="UZOQ-vaOavC9OgUh06o8-31" value="i=0&lt;div&gt;j=0&lt;/div&gt;&lt;div&gt;k=0&lt;/div&gt;" style="rounded=1;whiteSpace=wrap;html=1;" vertex="1" parent="1">
          <mxGeometry x="170" y="1330" width="100" height="100" as="geometry" />
        </mxCell>
        <mxCell id="UZOQ-vaOavC9OgUh06o8-78" style="edgeStyle=orthogonalEdgeStyle;rounded=0;orthogonalLoop=1;jettySize=auto;html=1;exitX=1;exitY=0.5;exitDx=0;exitDy=0;entryX=0;entryY=0.5;entryDx=0;entryDy=0;" edge="1" parent="1" source="UZOQ-vaOavC9OgUh06o8-38" target="UZOQ-vaOavC9OgUh06o8-39">
          <mxGeometry relative="1" as="geometry" />
        </mxCell>
        <mxCell id="UZOQ-vaOavC9OgUh06o8-79" style="edgeStyle=orthogonalEdgeStyle;rounded=0;orthogonalLoop=1;jettySize=auto;html=1;exitX=0;exitY=0.5;exitDx=0;exitDy=0;entryX=0.5;entryY=0;entryDx=0;entryDy=0;" edge="1" parent="1" source="UZOQ-vaOavC9OgUh06o8-38" target="UZOQ-vaOavC9OgUh06o8-56">
          <mxGeometry relative="1" as="geometry" />
        </mxCell>
        <mxCell id="UZOQ-vaOavC9OgUh06o8-38" value="i &amp;lt; left.lenght&lt;div&gt;&amp;amp;&amp;amp;&lt;/div&gt;&lt;div&gt;j &amp;lt; right.lenght&lt;/div&gt;" style="rhombus;whiteSpace=wrap;html=1;" vertex="1" parent="1">
          <mxGeometry x="155" y="1480" width="130" height="130" as="geometry" />
        </mxCell>
        <mxCell id="UZOQ-vaOavC9OgUh06o8-43" style="edgeStyle=orthogonalEdgeStyle;rounded=0;orthogonalLoop=1;jettySize=auto;html=1;exitX=0.5;exitY=1;exitDx=0;exitDy=0;entryX=0;entryY=0.5;entryDx=0;entryDy=0;" edge="1" parent="1" source="UZOQ-vaOavC9OgUh06o8-39" target="UZOQ-vaOavC9OgUh06o8-41">
          <mxGeometry relative="1" as="geometry" />
        </mxCell>
        <mxCell id="UZOQ-vaOavC9OgUh06o8-44" style="edgeStyle=orthogonalEdgeStyle;rounded=0;orthogonalLoop=1;jettySize=auto;html=1;exitX=1;exitY=0.5;exitDx=0;exitDy=0;entryX=0;entryY=0.5;entryDx=0;entryDy=0;" edge="1" parent="1" source="UZOQ-vaOavC9OgUh06o8-39" target="UZOQ-vaOavC9OgUh06o8-42">
          <mxGeometry relative="1" as="geometry" />
        </mxCell>
        <mxCell id="UZOQ-vaOavC9OgUh06o8-39" value="left[i] &amp;lt; right[j]" style="rhombus;whiteSpace=wrap;html=1;" vertex="1" parent="1">
          <mxGeometry x="370" y="1490" width="110" height="110" as="geometry" />
        </mxCell>
        <mxCell id="UZOQ-vaOavC9OgUh06o8-49" style="edgeStyle=orthogonalEdgeStyle;rounded=0;orthogonalLoop=1;jettySize=auto;html=1;exitX=1;exitY=0.5;exitDx=0;exitDy=0;entryX=0;entryY=0.5;entryDx=0;entryDy=0;" edge="1" parent="1" source="UZOQ-vaOavC9OgUh06o8-41" target="UZOQ-vaOavC9OgUh06o8-47">
          <mxGeometry relative="1" as="geometry" />
        </mxCell>
        <mxCell id="UZOQ-vaOavC9OgUh06o8-41" value="result[k] = left[i]" style="rounded=1;whiteSpace=wrap;html=1;" vertex="1" parent="1">
          <mxGeometry x="510" y="1645" width="120" height="60" as="geometry" />
        </mxCell>
        <mxCell id="UZOQ-vaOavC9OgUh06o8-51" style="edgeStyle=orthogonalEdgeStyle;rounded=0;orthogonalLoop=1;jettySize=auto;html=1;exitX=1;exitY=0.5;exitDx=0;exitDy=0;" edge="1" parent="1" source="UZOQ-vaOavC9OgUh06o8-42" target="UZOQ-vaOavC9OgUh06o8-48">
          <mxGeometry relative="1" as="geometry" />
        </mxCell>
        <mxCell id="UZOQ-vaOavC9OgUh06o8-42" value="result[k] = right[j]" style="rounded=1;whiteSpace=wrap;html=1;" vertex="1" parent="1">
          <mxGeometry x="510" y="1510" width="120" height="60" as="geometry" />
        </mxCell>
        <mxCell id="UZOQ-vaOavC9OgUh06o8-45" value="True" style="text;html=1;align=center;verticalAlign=middle;resizable=0;points=[];autosize=1;strokeColor=none;fillColor=none;" vertex="1" parent="1">
          <mxGeometry x="420" y="1600" width="50" height="30" as="geometry" />
        </mxCell>
        <mxCell id="UZOQ-vaOavC9OgUh06o8-46" value="False" style="text;html=1;align=center;verticalAlign=middle;resizable=0;points=[];autosize=1;strokeColor=none;fillColor=none;" vertex="1" parent="1">
          <mxGeometry x="460" y="1500" width="50" height="30" as="geometry" />
        </mxCell>
        <mxCell id="UZOQ-vaOavC9OgUh06o8-81" style="edgeStyle=orthogonalEdgeStyle;rounded=0;orthogonalLoop=1;jettySize=auto;html=1;exitX=1;exitY=0.5;exitDx=0;exitDy=0;" edge="1" parent="1" source="UZOQ-vaOavC9OgUh06o8-47">
          <mxGeometry relative="1" as="geometry">
            <mxPoint x="819.9999999999998" y="1540" as="targetPoint" />
          </mxGeometry>
        </mxCell>
        <mxCell id="UZOQ-vaOavC9OgUh06o8-47" value="i++&lt;div&gt;k++&lt;/div&gt;" style="rounded=1;whiteSpace=wrap;html=1;" vertex="1" parent="1">
          <mxGeometry x="700" y="1645" width="80" height="60" as="geometry" />
        </mxCell>
        <mxCell id="UZOQ-vaOavC9OgUh06o8-80" style="edgeStyle=orthogonalEdgeStyle;rounded=0;orthogonalLoop=1;jettySize=auto;html=1;exitX=1;exitY=0.5;exitDx=0;exitDy=0;" edge="1" parent="1" source="UZOQ-vaOavC9OgUh06o8-48">
          <mxGeometry relative="1" as="geometry">
            <mxPoint x="220" y="1450" as="targetPoint" />
            <Array as="points">
              <mxPoint x="820" y="1540" />
              <mxPoint x="820" y="1450" />
            </Array>
          </mxGeometry>
        </mxCell>
        <mxCell id="UZOQ-vaOavC9OgUh06o8-48" value="j++&lt;div&gt;k++&lt;/div&gt;" style="rounded=1;whiteSpace=wrap;html=1;" vertex="1" parent="1">
          <mxGeometry x="700" y="1510" width="80" height="60" as="geometry" />
        </mxCell>
        <mxCell id="UZOQ-vaOavC9OgUh06o8-55" value="True" style="text;html=1;align=center;verticalAlign=middle;resizable=0;points=[];autosize=1;strokeColor=none;fillColor=none;" vertex="1" parent="1">
          <mxGeometry x="295" y="1510" width="50" height="30" as="geometry" />
        </mxCell>
        <mxCell id="UZOQ-vaOavC9OgUh06o8-65" style="edgeStyle=orthogonalEdgeStyle;rounded=0;orthogonalLoop=1;jettySize=auto;html=1;exitX=0.5;exitY=1;exitDx=0;exitDy=0;entryX=0.5;entryY=0;entryDx=0;entryDy=0;" edge="1" parent="1" source="UZOQ-vaOavC9OgUh06o8-56" target="UZOQ-vaOavC9OgUh06o8-57">
          <mxGeometry relative="1" as="geometry" />
        </mxCell>
        <mxCell id="UZOQ-vaOavC9OgUh06o8-68" style="edgeStyle=orthogonalEdgeStyle;rounded=0;orthogonalLoop=1;jettySize=auto;html=1;exitX=1;exitY=0.5;exitDx=0;exitDy=0;entryX=0.5;entryY=0;entryDx=0;entryDy=0;" edge="1" parent="1" source="UZOQ-vaOavC9OgUh06o8-56" target="UZOQ-vaOavC9OgUh06o8-59">
          <mxGeometry relative="1" as="geometry">
            <Array as="points">
              <mxPoint x="215.06" y="1769.94" />
              <mxPoint x="215.06" y="1699.94" />
              <mxPoint x="345.06" y="1699.94" />
            </Array>
          </mxGeometry>
        </mxCell>
        <mxCell id="UZOQ-vaOavC9OgUh06o8-56" value="i &amp;lt; left.lenght" style="rhombus;whiteSpace=wrap;html=1;" vertex="1" parent="1">
          <mxGeometry x="85.06" y="1719.94" width="100" height="100" as="geometry" />
        </mxCell>
        <mxCell id="UZOQ-vaOavC9OgUh06o8-66" style="edgeStyle=orthogonalEdgeStyle;rounded=0;orthogonalLoop=1;jettySize=auto;html=1;exitX=0.5;exitY=1;exitDx=0;exitDy=0;entryX=0.5;entryY=0;entryDx=0;entryDy=0;" edge="1" parent="1" source="UZOQ-vaOavC9OgUh06o8-57" target="UZOQ-vaOavC9OgUh06o8-58">
          <mxGeometry relative="1" as="geometry" />
        </mxCell>
        <mxCell id="UZOQ-vaOavC9OgUh06o8-57" value="result[k] = left[i]" style="rounded=1;whiteSpace=wrap;html=1;" vertex="1" parent="1">
          <mxGeometry x="75.06" y="1844.94" width="120" height="60" as="geometry" />
        </mxCell>
        <mxCell id="UZOQ-vaOavC9OgUh06o8-67" style="edgeStyle=orthogonalEdgeStyle;rounded=0;orthogonalLoop=1;jettySize=auto;html=1;exitX=0;exitY=0.5;exitDx=0;exitDy=0;entryX=0;entryY=0.5;entryDx=0;entryDy=0;" edge="1" parent="1" source="UZOQ-vaOavC9OgUh06o8-58" target="UZOQ-vaOavC9OgUh06o8-56">
          <mxGeometry relative="1" as="geometry">
            <Array as="points">
              <mxPoint x="45.059999999999995" y="1969.94" />
              <mxPoint x="45.059999999999995" y="1769.94" />
            </Array>
          </mxGeometry>
        </mxCell>
        <mxCell id="UZOQ-vaOavC9OgUh06o8-58" value="i++&lt;div&gt;k++&lt;/div&gt;" style="rounded=1;whiteSpace=wrap;html=1;" vertex="1" parent="1">
          <mxGeometry x="95.06" y="1939.94" width="80" height="60" as="geometry" />
        </mxCell>
        <mxCell id="UZOQ-vaOavC9OgUh06o8-71" style="edgeStyle=orthogonalEdgeStyle;rounded=0;orthogonalLoop=1;jettySize=auto;html=1;exitX=0.5;exitY=1;exitDx=0;exitDy=0;" edge="1" parent="1" source="UZOQ-vaOavC9OgUh06o8-59" target="UZOQ-vaOavC9OgUh06o8-60">
          <mxGeometry relative="1" as="geometry" />
        </mxCell>
        <mxCell id="UZOQ-vaOavC9OgUh06o8-76" style="edgeStyle=orthogonalEdgeStyle;rounded=0;orthogonalLoop=1;jettySize=auto;html=1;exitX=1;exitY=0.5;exitDx=0;exitDy=0;entryX=1;entryY=0.5;entryDx=0;entryDy=0;" edge="1" parent="1" source="UZOQ-vaOavC9OgUh06o8-59" target="UZOQ-vaOavC9OgUh06o8-75">
          <mxGeometry relative="1" as="geometry">
            <Array as="points">
              <mxPoint x="455.06" y="1769.94" />
              <mxPoint x="455.06" y="2224.94" />
            </Array>
          </mxGeometry>
        </mxCell>
        <mxCell id="UZOQ-vaOavC9OgUh06o8-59" value="j &amp;lt; right.lenght" style="rhombus;whiteSpace=wrap;html=1;" vertex="1" parent="1">
          <mxGeometry x="295.06" y="1719.94" width="100" height="100" as="geometry" />
        </mxCell>
        <mxCell id="UZOQ-vaOavC9OgUh06o8-72" style="edgeStyle=orthogonalEdgeStyle;rounded=0;orthogonalLoop=1;jettySize=auto;html=1;exitX=0.5;exitY=1;exitDx=0;exitDy=0;" edge="1" parent="1" source="UZOQ-vaOavC9OgUh06o8-60" target="UZOQ-vaOavC9OgUh06o8-61">
          <mxGeometry relative="1" as="geometry" />
        </mxCell>
        <mxCell id="UZOQ-vaOavC9OgUh06o8-60" value="result[k] = right[j]" style="rounded=1;whiteSpace=wrap;html=1;" vertex="1" parent="1">
          <mxGeometry x="285.06" y="1844.94" width="120" height="60" as="geometry" />
        </mxCell>
        <mxCell id="UZOQ-vaOavC9OgUh06o8-73" style="edgeStyle=orthogonalEdgeStyle;rounded=0;orthogonalLoop=1;jettySize=auto;html=1;exitX=0;exitY=0.5;exitDx=0;exitDy=0;entryX=0;entryY=0.5;entryDx=0;entryDy=0;" edge="1" parent="1" source="UZOQ-vaOavC9OgUh06o8-61" target="UZOQ-vaOavC9OgUh06o8-59">
          <mxGeometry relative="1" as="geometry">
            <Array as="points">
              <mxPoint x="245.06" y="1969.94" />
              <mxPoint x="245.06" y="1769.94" />
            </Array>
          </mxGeometry>
        </mxCell>
        <mxCell id="UZOQ-vaOavC9OgUh06o8-61" value="j++&lt;div&gt;k++&lt;/div&gt;" style="rounded=1;whiteSpace=wrap;html=1;" vertex="1" parent="1">
          <mxGeometry x="305.06" y="1939.94" width="80" height="60" as="geometry" />
        </mxCell>
        <mxCell id="UZOQ-vaOavC9OgUh06o8-64" value="False" style="text;html=1;align=center;verticalAlign=middle;resizable=0;points=[];autosize=1;strokeColor=none;fillColor=none;" vertex="1" parent="1">
          <mxGeometry x="115.06" y="1510" width="50" height="30" as="geometry" />
        </mxCell>
        <mxCell id="UZOQ-vaOavC9OgUh06o8-69" value="True" style="text;html=1;align=center;verticalAlign=middle;resizable=0;points=[];autosize=1;strokeColor=none;fillColor=none;" vertex="1" parent="1">
          <mxGeometry x="85.06" y="1814.94" width="50" height="30" as="geometry" />
        </mxCell>
        <mxCell id="UZOQ-vaOavC9OgUh06o8-70" value="False" style="text;html=1;align=center;verticalAlign=middle;resizable=0;points=[];autosize=1;strokeColor=none;fillColor=none;" vertex="1" parent="1">
          <mxGeometry x="165.06" y="1734.94" width="50" height="30" as="geometry" />
        </mxCell>
        <mxCell id="UZOQ-vaOavC9OgUh06o8-74" value="True" style="text;html=1;align=center;verticalAlign=middle;resizable=0;points=[];autosize=1;strokeColor=none;fillColor=none;" vertex="1" parent="1">
          <mxGeometry x="295.06" y="1814.94" width="50" height="30" as="geometry" />
        </mxCell>
        <mxCell id="UZOQ-vaOavC9OgUh06o8-85" style="edgeStyle=orthogonalEdgeStyle;rounded=0;orthogonalLoop=1;jettySize=auto;html=1;exitX=0.5;exitY=1;exitDx=0;exitDy=0;entryX=0.5;entryY=0;entryDx=0;entryDy=0;" edge="1" parent="1" source="UZOQ-vaOavC9OgUh06o8-75" target="UZOQ-vaOavC9OgUh06o8-82">
          <mxGeometry relative="1" as="geometry" />
        </mxCell>
        <mxCell id="UZOQ-vaOavC9OgUh06o8-75" value="return result[]" style="rounded=1;whiteSpace=wrap;html=1;" vertex="1" parent="1">
          <mxGeometry x="175.06" y="2194.94" width="120" height="60" as="geometry" />
        </mxCell>
        <mxCell id="UZOQ-vaOavC9OgUh06o8-77" value="False" style="text;html=1;align=center;verticalAlign=middle;resizable=0;points=[];autosize=1;strokeColor=none;fillColor=none;" vertex="1" parent="1">
          <mxGeometry x="385.06" y="1744.94" width="50" height="30" as="geometry" />
        </mxCell>
        <mxCell id="UZOQ-vaOavC9OgUh06o8-82" value="End" style="ellipse;whiteSpace=wrap;html=1;" vertex="1" parent="1">
          <mxGeometry x="175.06" y="2320" width="120" height="80" as="geometry" />
        </mxCell>
        <mxCell id="UZOQ-vaOavC9OgUh06o8-86" style="edgeStyle=orthogonalEdgeStyle;rounded=0;orthogonalLoop=1;jettySize=auto;html=1;exitX=0.5;exitY=1;exitDx=0;exitDy=0;entryX=0.5;entryY=0;entryDx=0;entryDy=0;" edge="1" parent="1" source="UZOQ-vaOavC9OgUh06o8-87" target="UZOQ-vaOavC9OgUh06o8-89">
          <mxGeometry relative="1" as="geometry" />
        </mxCell>
        <mxCell id="UZOQ-vaOavC9OgUh06o8-87" value="Main" style="ellipse;whiteSpace=wrap;html=1;" vertex="1" parent="1">
          <mxGeometry x="1215" y="50" width="120" height="80" as="geometry" />
        </mxCell>
        <mxCell id="UZOQ-vaOavC9OgUh06o8-88" style="edgeStyle=orthogonalEdgeStyle;rounded=0;orthogonalLoop=1;jettySize=auto;html=1;exitX=0.5;exitY=1;exitDx=0;exitDy=0;entryX=0.5;entryY=0;entryDx=0;entryDy=0;" edge="1" parent="1" source="UZOQ-vaOavC9OgUh06o8-89" target="UZOQ-vaOavC9OgUh06o8-91">
          <mxGeometry relative="1" as="geometry" />
        </mxCell>
        <mxCell id="UZOQ-vaOavC9OgUh06o8-89" value="someArray[] = { 3, 9, 4, 3, 1, 3, 7 }" style="rounded=1;whiteSpace=wrap;html=1;" vertex="1" parent="1">
          <mxGeometry x="1175" y="180" width="200" height="40" as="geometry" />
        </mxCell>
        <mxCell id="UZOQ-vaOavC9OgUh06o8-90" style="edgeStyle=orthogonalEdgeStyle;rounded=0;orthogonalLoop=1;jettySize=auto;html=1;exitX=0.5;exitY=1;exitDx=0;exitDy=0;entryX=0.5;entryY=0;entryDx=0;entryDy=0;" edge="1" parent="1" source="UZOQ-vaOavC9OgUh06o8-91" target="UZOQ-vaOavC9OgUh06o8-93">
          <mxGeometry relative="1" as="geometry" />
        </mxCell>
        <mxCell id="UZOQ-vaOavC9OgUh06o8-91" value="mergeSort(someArray[])" style="rounded=1;whiteSpace=wrap;html=1;" vertex="1" parent="1">
          <mxGeometry x="1150" y="270" width="250" height="60" as="geometry" />
        </mxCell>
        <mxCell id="UZOQ-vaOavC9OgUh06o8-92" style="edgeStyle=orthogonalEdgeStyle;rounded=0;orthogonalLoop=1;jettySize=auto;html=1;exitX=0.5;exitY=1;exitDx=0;exitDy=0;entryX=0.5;entryY=0;entryDx=0;entryDy=0;" edge="1" parent="1" source="UZOQ-vaOavC9OgUh06o8-93" target="UZOQ-vaOavC9OgUh06o8-94">
          <mxGeometry relative="1" as="geometry" />
        </mxCell>
        <mxCell id="UZOQ-vaOavC9OgUh06o8-93" value="print Array[]" style="rounded=1;whiteSpace=wrap;html=1;" vertex="1" parent="1">
          <mxGeometry x="1215" y="390" width="120" height="60" as="geometry" />
        </mxCell>
        <mxCell id="UZOQ-vaOavC9OgUh06o8-94" value="End" style="ellipse;whiteSpace=wrap;html=1;" vertex="1" parent="1">
          <mxGeometry x="1215" y="510" width="120" height="80" as="geometry" />
        </mxCell>
        <mxCell id="UZOQ-vaOavC9OgUh06o8-95" value="program splits array in 2 parts, left and right" style="text;html=1;align=center;verticalAlign=middle;resizable=0;points=[];autosize=1;strokeColor=none;fillColor=none;" vertex="1" parent="1">
          <mxGeometry x="405" y="448" width="250" height="30" as="geometry" />
        </mxCell>
        <mxCell id="UZOQ-vaOavC9OgUh06o8-98" style="edgeStyle=orthogonalEdgeStyle;rounded=0;orthogonalLoop=1;jettySize=auto;html=1;exitX=1;exitY=0.5;exitDx=0;exitDy=0;entryX=1;entryY=0.5;entryDx=0;entryDy=0;" edge="1" parent="1" source="UZOQ-vaOavC9OgUh06o8-97" target="UZOQ-vaOavC9OgUh06o8-28">
          <mxGeometry relative="1" as="geometry" />
        </mxCell>
        <mxCell id="UZOQ-vaOavC9OgUh06o8-100" style="edgeStyle=orthogonalEdgeStyle;rounded=0;orthogonalLoop=1;jettySize=auto;html=1;exitX=0.5;exitY=1;exitDx=0;exitDy=0;" edge="1" parent="1" source="UZOQ-vaOavC9OgUh06o8-97" target="UZOQ-vaOavC9OgUh06o8-30">
          <mxGeometry relative="1" as="geometry" />
        </mxCell>
        <mxCell id="UZOQ-vaOavC9OgUh06o8-97" value="j &amp;lt; array.lenght" style="rhombus;whiteSpace=wrap;html=1;" vertex="1" parent="1">
          <mxGeometry x="165" y="1040" width="110" height="110" as="geometry" />
        </mxCell>
        <mxCell id="UZOQ-vaOavC9OgUh06o8-101" value="array left goes from 0 to mid" style="text;html=1;align=center;verticalAlign=middle;resizable=0;points=[];autosize=1;strokeColor=none;fillColor=none;" vertex="1" parent="1">
          <mxGeometry x="375" y="688" width="170" height="30" as="geometry" />
        </mxCell>
        <mxCell id="UZOQ-vaOavC9OgUh06o8-102" value="array right goes from mid to the end of array" style="text;html=1;align=center;verticalAlign=middle;resizable=0;points=[];autosize=1;strokeColor=none;fillColor=none;" vertex="1" parent="1">
          <mxGeometry x="300" y="1038" width="260" height="30" as="geometry" />
        </mxCell>
        <mxCell id="UZOQ-vaOavC9OgUh06o8-103" value="array result with left + right elements" style="text;html=1;align=center;verticalAlign=middle;resizable=0;points=[];autosize=1;strokeColor=none;fillColor=none;" vertex="1" parent="1">
          <mxGeometry x="330" y="1258" width="220" height="30" as="geometry" />
        </mxCell>
        <mxCell id="UZOQ-vaOavC9OgUh06o8-104" value="program compare elements from left and right array&lt;div&gt;and push them in to new array result&lt;/div&gt;" style="text;html=1;align=center;verticalAlign=middle;resizable=0;points=[];autosize=1;strokeColor=none;fillColor=none;" vertex="1" parent="1">
          <mxGeometry x="850" y="1560" width="300" height="40" as="geometry" />
        </mxCell>
        <mxCell id="UZOQ-vaOavC9OgUh06o8-105" value="here we insert remeining elements&lt;div&gt;in to array result&lt;/div&gt;" style="text;html=1;align=center;verticalAlign=middle;resizable=0;points=[];autosize=1;strokeColor=none;fillColor=none;" vertex="1" parent="1">
          <mxGeometry x="470" y="1873" width="210" height="40" as="geometry" />
        </mxCell>
        <mxCell id="UZOQ-vaOavC9OgUh06o8-106" value="&lt;span style=&quot;font-size: 14px;&quot;&gt;Function mergeSort to sort&amp;nbsp;&lt;br&gt;&lt;/span&gt;&lt;span style=&quot;font-size: 14px; background-color: initial;&quot;&gt;&amp;nbsp;input array[] with n elements&lt;/span&gt;&lt;span style=&quot;color: rgba(0, 0, 0, 0); font-family: monospace; font-size: 0px; text-align: start;&quot;&gt;3CmxGraphModel%3E%3Croot%3E%3CmxCell%20id%3D%220%22%2F%3E%3CmxCell%20id%3D%221%22%20parent%3D%220%22%2F%3E%3CmxCell%20id%3D%222%22%20value%3D%22Function%20sortNmr%20to%20sort%26amp%3Bnbsp%3B%26lt%3Bdiv%20style%3D%26quot%3Bfont-size%3A%2014px%3B%26quot%3B%26gt%3B%26amp%3Bnbsp%3Binput%20array%5B%5D%20with%20n%20elements%26lt%3B%2Fdiv%26gt%3B%22%20style%3D%22text%3Bhtml%3D1%3Balign%3Dcenter%3BverticalAlign%3Dmiddle%3Bresizable%3D0%3Bpoints%3D%5B%5D%3Bautosize%3D1%3BstrokeColor%3Dnone%3BfillColor%3Dnone%3BfontSize%3D14%3B%22%20vertex%3D%221%22%20parent%3D%221%22%3E%3CmxGeometry%20x%3D%22210%22%20y%3D%22175%22%20width%3D%22200%22%20height%3D%2250%22%20as%3D%22geometry%22%2F%3E%3C%2FmxCell%3E%3C%2Froot%3E%3C%2FmxGraphModel%3E&lt;/span&gt;" style="text;html=1;align=center;verticalAlign=middle;resizable=0;points=[];autosize=1;strokeColor=none;fillColor=none;" vertex="1" parent="1">
          <mxGeometry x="315" y="185" width="200" height="50" as="geometry" />
        </mxCell>
      </root>
    </mxGraphModel>
  </diagram>
  <diagram id="n53h75sROiRogR2G4u9I" name="Page-2">
    <mxGraphModel dx="1434" dy="756" grid="1" gridSize="10" guides="1" tooltips="1" connect="1" arrows="1" fold="1" page="1" pageScale="1" pageWidth="850" pageHeight="1100" math="0" shadow="0">
      <root>
        <mxCell id="0" />
        <mxCell id="1" parent="0" />
      </root>
    </mxGraphModel>
  </diagram>
</mxfile>
